<svg xmlns="http://www.w3.org/2000/svg" xmlns:xlink="http://www.w3.org/1999/xlink" width="85" height="68.022" viewBox="0 0 85 68.022">
  <defs>
    <clipPath id="clip-path">
      <rect id="Retângulo_2" data-name="Retângulo 2" width="85" height="68.022" fill="none"/>
    </clipPath>
  </defs>
  <g id="Grupo_4" data-name="Grupo 4" transform="translate(0 15)">
    <g id="Grupo_3" data-name="Grupo 3" transform="translate(0 -15)" clip-path="url(#clip-path)">
      <path id="Caminho_5" data-name="Caminho 5" d="M70.168,165.372l1.93-2.3a6.819,6.819,0,0,0,4.891,2.062c1.983,0,3.278-.9,3.278-2.353,0-1.215-.82-1.824-2.671-2.3l-2.115-.582c-3.04-.793-4.653-2.537-4.653-5.049,0-3.041,2.406-5.128,5.922-5.128a10.386,10.386,0,0,1,6.291,2.088l-1.665,2.406a7.393,7.393,0,0,0-4.6-1.639c-1.585,0-2.723.767-2.723,2.035,0,1.216.846,1.8,2.723,2.3l2.036.555c3.04.793,4.706,2.512,4.706,5.1,0,3.331-2.591,5.5-6.636,5.5a9.669,9.669,0,0,1-6.716-2.7" transform="translate(-54.404 -116.085)" fill="#fff"/>
      <path id="Caminho_6" data-name="Caminho 6" d="M141.937,158.9a9.349,9.349,0,0,1,17.607-4.2l-2.908,1.375a5.983,5.983,0,0,0-5.393-3.225,6.055,6.055,0,0,0,0,12.108,5.976,5.976,0,0,0,5.419-3.226l2.908,1.375a9.366,9.366,0,0,1-17.634-4.2" transform="translate(-110.049 -116.085)" fill="#fff"/>
      <path id="Caminho_7" data-name="Caminho 7" d="M242.191,168.845l-1.719-3.781H231.8l-1.719,3.781h-3.436l8.2-17.713h2.67l8.169,17.713Zm-9.121-6.582H239.2l-3.066-6.794Z" transform="translate(-175.728 -117.178)" fill="#fff"/>
      <path id="Caminho_8" data-name="Caminho 8" d="M308.062,213.923H287.7v-3.491h16.875V188.177h3.491Z" transform="translate(-223.062 -145.901)" fill="#fff"/>
      <path id="Caminho_9" data-name="Caminho 9" d="M3.491,42.654H0V21.588L32.216,0l1.944,2.9L3.491,23.451Z" transform="translate(0 0)" fill="#fff"/>
    </g>
  </g>
</svg>
